<mxfile host="65bd71144e">
    <diagram id="DPl1PjUfLh3Job8icvtv" name="S02-01 店舗情報一覧">
        <mxGraphModel dx="814" dy="339" grid="1" gridSize="10" guides="1" tooltips="1" connect="1" arrows="1" fold="1" page="1" pageScale="1" pageWidth="827" pageHeight="1169" math="0" shadow="0">
            <root>
                <mxCell id="0"/>
                <mxCell id="1" parent="0"/>
            </root>
        </mxGraphModel>
    </diagram>
    <diagram id="A3Q3lcUJCPUDSYFU90Ge" name="S02-02 店舗情報新規登録">
        <mxGraphModel dx="814" dy="339" grid="1" gridSize="10" guides="1" tooltips="1" connect="1" arrows="1" fold="1" page="0" pageScale="1" pageWidth="827" pageHeight="1169" math="0" shadow="0">
            <root>
                <mxCell id="eWoq72N2SN23J38T62mb-0"/>
                <mxCell id="eWoq72N2SN23J38T62mb-1" style="locked=1;" parent="eWoq72N2SN23J38T62mb-0"/>
                <mxCell id="ui27iv0UIeF6fwphAz-U-0" value="" style="rounded=0;whiteSpace=wrap;html=1;" vertex="1" parent="eWoq72N2SN23J38T62mb-1">
                    <mxGeometry x="15" y="36.5" width="680" height="403.5" as="geometry"/>
                </mxCell>
                <mxCell id="ui27iv0UIeF6fwphAz-U-1" value="店舗新規登録" style="text;html=1;strokeColor=none;fillColor=none;align=center;verticalAlign=middle;whiteSpace=wrap;rounded=0;fontColor=default;fontStyle=1;fontSize=20;" vertex="1" parent="eWoq72N2SN23J38T62mb-1">
                    <mxGeometry x="282.5" y="55" width="145" height="50" as="geometry"/>
                </mxCell>
                <mxCell id="ui27iv0UIeF6fwphAz-U-2" value="店舗名" style="text;html=1;strokeColor=none;fillColor=none;align=center;verticalAlign=middle;whiteSpace=wrap;rounded=0;" vertex="1" parent="eWoq72N2SN23J38T62mb-1">
                    <mxGeometry x="120" y="161.5" width="60" height="30" as="geometry"/>
                </mxCell>
                <mxCell id="ui27iv0UIeF6fwphAz-U-3" value="" style="rounded=1;arcSize=9;fillColor=#F7F8F9;align=left;spacingLeft=5;strokeColor=#DEE1E6;html=1;strokeWidth=2;fontSize=12" vertex="1" parent="eWoq72N2SN23J38T62mb-1">
                    <mxGeometry x="220" y="161.5" width="290" height="33" as="geometry"/>
                </mxCell>
                <mxCell id="ui27iv0UIeF6fwphAz-U-4" value="住所" style="text;html=1;strokeColor=none;fillColor=none;align=center;verticalAlign=middle;whiteSpace=wrap;rounded=0;" vertex="1" parent="eWoq72N2SN23J38T62mb-1">
                    <mxGeometry x="100" y="205" width="100" height="30" as="geometry"/>
                </mxCell>
                <mxCell id="ui27iv0UIeF6fwphAz-U-5" value="" style="rounded=1;arcSize=9;fillColor=#F7F8F9;align=left;spacingLeft=5;strokeColor=#DEE1E6;html=1;strokeWidth=2;fontSize=12" vertex="1" parent="eWoq72N2SN23J38T62mb-1">
                    <mxGeometry x="220" y="205" width="290" height="33" as="geometry"/>
                </mxCell>
                <mxCell id="ui27iv0UIeF6fwphAz-U-6" value="連絡先" style="text;html=1;strokeColor=none;fillColor=none;align=center;verticalAlign=middle;whiteSpace=wrap;rounded=0;" vertex="1" parent="eWoq72N2SN23J38T62mb-1">
                    <mxGeometry x="120" y="253" width="60" height="30" as="geometry"/>
                </mxCell>
                <mxCell id="ui27iv0UIeF6fwphAz-U-7" value="" style="rounded=1;arcSize=9;fillColor=#F7F8F9;align=left;spacingLeft=5;strokeColor=#DEE1E6;html=1;strokeWidth=2;fontSize=12" vertex="1" parent="eWoq72N2SN23J38T62mb-1">
                    <mxGeometry x="220" y="250" width="290" height="33" as="geometry"/>
                </mxCell>
                <mxCell id="ui27iv0UIeF6fwphAz-U-8" value="店長" style="text;html=1;strokeColor=none;fillColor=none;align=center;verticalAlign=middle;whiteSpace=wrap;rounded=0;" vertex="1" parent="eWoq72N2SN23J38T62mb-1">
                    <mxGeometry x="120" y="293" width="60" height="30" as="geometry"/>
                </mxCell>
                <mxCell id="ui27iv0UIeF6fwphAz-U-9" value="" style="rounded=1;arcSize=9;fillColor=#ffffff;strokeColor=#4C9AFF;html=1;strokeWidth=2;spacingLeft=30;fontColor=#000000;align=left" vertex="1" parent="eWoq72N2SN23J38T62mb-1">
                    <mxGeometry x="220" y="290" width="290" height="33" as="geometry"/>
                </mxCell>
                <mxCell id="ui27iv0UIeF6fwphAz-U-10" value="" style="shape=step;whiteSpace=wrap;html=1;rounded=0;strokeColor=none;strokeWidth=2;fillColor=#0A1E43;gradientColor=none;fontFamily=Verdana;fontSize=14;fontColor=#000000;align=left;direction=south;size=0.65;" vertex="1" parent="ui27iv0UIeF6fwphAz-U-9">
                    <mxGeometry x="1" y="0.5" width="10" height="7" relative="1" as="geometry">
                        <mxPoint x="-24" y="-3" as="offset"/>
                    </mxGeometry>
                </mxCell>
                <mxCell id="ui27iv0UIeF6fwphAz-U-11" value="&lt;span style=&quot;font-size: 19px&quot;&gt;登録&lt;/span&gt;" style="rounded=1;whiteSpace=wrap;html=1;align=center;labelBackgroundColor=none;fillColor=#d5e8d4;strokeColor=#82b366;" vertex="1" parent="eWoq72N2SN23J38T62mb-1">
                    <mxGeometry x="300" y="370" width="130" height="34" as="geometry"/>
                </mxCell>
                <mxCell id="ui27iv0UIeF6fwphAz-U-12" value="入力例" style="" parent="eWoq72N2SN23J38T62mb-0"/>
                <mxCell id="ui27iv0UIeF6fwphAz-U-40" value="店舗A" style="text;html=1;align=center;verticalAlign=middle;resizable=0;points=[];autosize=1;strokeColor=none;" vertex="1" parent="ui27iv0UIeF6fwphAz-U-12">
                    <mxGeometry x="225" y="166.5" width="50" height="20" as="geometry"/>
                </mxCell>
                <mxCell id="ui27iv0UIeF6fwphAz-U-26" value="部品番号" style="" parent="eWoq72N2SN23J38T62mb-0"/>
            </root>
        </mxGraphModel>
    </diagram>
    <diagram id="bK47HYImk5hpBSsjFyJ5" name="S02-03 店舗情報詳細">
        <mxGraphModel dx="814" dy="339" grid="1" gridSize="10" guides="1" tooltips="1" connect="1" arrows="1" fold="1" page="1" pageScale="1" pageWidth="827" pageHeight="1169" math="0" shadow="0">
            <root>
                <mxCell id="1orTbbOIFc5g9HCdonoh-0"/>
                <mxCell id="1orTbbOIFc5g9HCdonoh-1" parent="1orTbbOIFc5g9HCdonoh-0"/>
            </root>
        </mxGraphModel>
    </diagram>
    <diagram id="jSfkOUDPXIi2WiB1VF7b" name="(どうする？)S02-04 店舗情報編集">
        <mxGraphModel dx="814" dy="339" grid="1" gridSize="10" guides="1" tooltips="1" connect="1" arrows="1" fold="1" page="1" pageScale="1" pageWidth="827" pageHeight="1169" math="0" shadow="0">
            <root>
                <mxCell id="JPv67TlJx9QXm954AAcY-0"/>
                <mxCell id="JPv67TlJx9QXm954AAcY-1" parent="JPv67TlJx9QXm954AAcY-0"/>
            </root>
        </mxGraphModel>
    </diagram>
</mxfile>